# xmcd
#
# Track frame offsets: 
#        150
#        16025
#        33553
#        49369
#        65065
#        83021
#        99852
#        119572
#        134841
#        150164
#
# Disc length: 2255 seconds
#
# Revision: 0
# Processed by: cddbd v1.5.2PL0 Copyright (c) Steve Scherf et al.
# Submitted via: ExactAudioCopy v0.95b4
#
DISCID=7e08cd0a
DTITLE=Choirboys - Evolver
DYEAR=2003
DGENRE=Rock
TTITLE0=Fuel (A Day In The Life)
TTITLE1=Pharaohs (Let It Be)
TTITLE2=The Dog Song
TTITLE3=Dream On (All You Need Is Love)
TTITLE4=Please Believe Me (Come Together)
TTITLE5=Cold Outside Your Heart (Good Day Sunshine)
TTITLE6=Break It Free (Girl)
TTITLE7=Ride Up (Baby's In Black)
TTITLE8=Roll It Over (Yesterday)
TTITLE9=All Over You (She's Leaving Home)
EXTD=
EXTT0=
EXTT1=
EXTT2=
EXTT3=
EXTT4=
EXTT5=
EXTT6=
EXTT7=
EXTT8=
EXTT9=
PLAYORDER=
